<svg width="64" height="64" viewBox="0 0 64 64" fill="none" xmlns="http://www.w3.org/2000/svg">
  <defs>
    <linearGradient id="bg" x1="12" y1="6" x2="54" y2="58" gradientUnits="userSpaceOnUse">
      <stop stop-color="#26547C"/>
      <stop offset="1" stop-color="#12324F"/>
    </linearGradient>
    <linearGradient id="accent" x1="40" y1="12" x2="54" y2="32" gradientUnits="userSpaceOnUse">
      <stop stop-color="#F6B24A"/>
      <stop offset="1" stop-color="#F97316"/>
    </linearGradient>
  </defs>
  <rect width="64" height="64" rx="18" fill="url(#bg)"/>
  <path d="M15.5 21.6c6.8-3.4 12.6-3.1 16.5.7v25.2c-3.9-3.7-9.7-4-16.5-.7V21.6Z" fill="#fff" opacity=".96"/>
  <path d="M48.5 21.6c-6.8-3.4-12.6-3.1-16.5.7v25.2c3.9-3.7 9.7-4 16.5-.7V21.6Z" fill="#fff" opacity=".96"/>
  <path d="M32 22.3v25.2" stroke="#D7E7F5" stroke-width="2.25" stroke-linecap="round"/>
  <path d="M20.3 27.6c3.1-.9 5.7-.7 7.8.6M20.3 33.2c3.1-.9 5.7-.7 7.8.6M43.7 27.6c-3.1-.9-5.7-.7-7.8.6M43.7 33.2c-3.1-.9-5.7-.7-7.8.6" stroke="#8EA9BF" stroke-width="1.8" stroke-linecap="round"/>
  <path d="M43.4 12.8a7.7 7.7 0 1 1 0 15.4 7.7 7.7 0 0 1 0-15.4Zm0 3.6a4.1 4.1 0 1 0 0 8.2 4.1 4.1 0 0 0 0-8.2Z" fill="url(#accent)"/>
  <path d="M46.7 26.4 52 31.7" stroke="#F97316" stroke-width="4" stroke-linecap="round"/>
</svg>
