<svg width="512" height="512" viewBox="0 0 512 512" fill="none" xmlns="http://www.w3.org/2000/svg">
  <defs>
    <linearGradient id="bg" x1="96" y1="48" x2="432" y2="464" gradientUnits="userSpaceOnUse">
      <stop stop-color="#26547C"/>
      <stop offset="1" stop-color="#12324F"/>
    </linearGradient>
    <linearGradient id="accent" x1="320" y1="96" x2="432" y2="256" gradientUnits="userSpaceOnUse">
      <stop stop-color="#F6B24A"/>
      <stop offset="1" stop-color="#F97316"/>
    </linearGradient>
    <filter id="shadow" x="80" y="84" width="360" height="316" color-interpolation-filters="sRGB" filterUnits="userSpaceOnUse">
      <feDropShadow dx="0" dy="18" stdDeviation="22" flood-color="#071C2D" flood-opacity=".22"/>
    </filter>
  </defs>
  <rect width="512" height="512" fill="url(#bg)"/>
  <g filter="url(#shadow)">
    <path d="M124 173c54.4-27.2 100.8-24.8 132 5.6v201.6c-31.2-29.6-77.6-32-132-5.6V173Z" fill="#fff" opacity=".96"/>
    <path d="M388 173c-54.4-27.2-100.8-24.8-132 5.6v201.6c31.2-29.6 77.6-32 132-5.6V173Z" fill="#fff" opacity=".96"/>
    <path d="M256 178.6v201.6" stroke="#D7E7F5" stroke-width="18" stroke-linecap="round"/>
    <path d="M162.4 220.8c24.8-7.2 45.6-5.6 62.4 4.8M162.4 265.6c24.8-7.2 45.6-5.6 62.4 4.8M349.6 220.8c-24.8-7.2-45.6-5.6-62.4 4.8M349.6 265.6c-24.8-7.2-45.6-5.6-62.4 4.8" stroke="#8EA9BF" stroke-width="14.4" stroke-linecap="round"/>
  </g>
  <path d="M347.2 102.4a61.6 61.6 0 1 1 0 123.2 61.6 61.6 0 0 1 0-123.2Zm0 28.8a32.8 32.8 0 1 0 0 65.6 32.8 32.8 0 0 0 0-65.6Z" fill="url(#accent)"/>
  <path d="m373.6 211.2 42.4 42.4" stroke="#F97316" stroke-width="32" stroke-linecap="round"/>
</svg>
