<svg width="420" height="112" viewBox="0 0 420 112" fill="none" xmlns="http://www.w3.org/2000/svg">
  <defs>
    <linearGradient id="bg" x1="21" y1="12" x2="91" y2="100" gradientUnits="userSpaceOnUse">
      <stop stop-color="#26547C"/>
      <stop offset="1" stop-color="#12324F"/>
    </linearGradient>
    <linearGradient id="accent" x1="68" y1="22" x2="92" y2="54" gradientUnits="userSpaceOnUse">
      <stop stop-color="#F6B24A"/>
      <stop offset="1" stop-color="#F97316"/>
    </linearGradient>
  </defs>
  <rect x="8" y="8" width="96" height="96" rx="27" fill="url(#bg)"/>
  <path d="M31.3 40.4c10.2-5.1 18.9-4.7 24.7 1.1v37.8c-5.9-5.6-14.6-6-24.7-1V40.4Z" fill="#fff" opacity=".96"/>
  <path d="M80.7 40.4c-10.2-5.1-18.9-4.7-24.7 1.1v37.8c5.9-5.6 14.6-6 24.7-1V40.4Z" fill="#fff" opacity=".96"/>
  <path d="M56 41.5v37.8" stroke="#D7E7F5" stroke-width="3.4" stroke-linecap="round"/>
  <path d="M38.5 49.4c4.7-1.4 8.6-1.1 11.7.9M38.5 57.8c4.7-1.4 8.6-1.1 11.7.9M73.5 49.4c-4.7-1.4-8.6-1.1-11.7.9M73.5 57.8c-4.7-1.4-8.6-1.1-11.7.9" stroke="#8EA9BF" stroke-width="2.7" stroke-linecap="round"/>
  <path d="M73.1 27.2a11.6 11.6 0 1 1 0 23.2 11.6 11.6 0 0 1 0-23.2Zm0 5.4a6.2 6.2 0 1 0 0 12.4 6.2 6.2 0 0 0 0-12.4Z" fill="url(#accent)"/>
  <path d="m78.1 47.6 7.9 7.9" stroke="#F97316" stroke-width="6" stroke-linecap="round"/>
  <text x="124" y="52" fill="#12324F" font-family="Inter, Arial, sans-serif" font-size="34" font-weight="800" letter-spacing="0">Pwen Books</text>
  <text x="126" y="80" fill="#5B7184" font-family="Noto Sans Lao, Inter, Arial, sans-serif" font-size="19" font-weight="700" letter-spacing="0">ພີແຫວນ</text>
</svg>
